# xmcd CD database file
#
# Track frame offsets:
#	150
#	10457
#	24857
#	34315
#	46677
#	59925
#	70270
#	81342
#	93395
#	104332
#	114342
#	126335
#	136512
#	148882
#	159125
#	171025
#	179077
#	191512
#	203332
#	214420
#
# Disc length: 3033 seconds
#
# Revision: 3
# Processed by: cddbd v1.5.2PL0 Copyright (c) Steve Scherf et al.
# Submitted via: CDex 1.51
#
DISCID=1b0bd714
DTITLE=George Jones - 20 Greatest Hits
DYEAR=1987
DGENRE=Country
TTITLE0=Walk Through This World With Me
TTITLE1=A Good Year For The Roses
TTITLE2=The Race Is On
TTITLE3=Take Me
TTITLE4=Things Have Gone To Pieces
TTITLE5=Developing My Pictures
TTITLE6=Tender Years
TTITLE7=From Here To The Door
TTITLE8=You Gotta Be My Baby
TTITLE9=Run Boy
TTITLE10=White Lightning
TTITLE11=I'm Ragged But I'm Right
TTITLE12=If My Heart Had Windows
TTITLE13=Why Baby Why
TTITLE14=They'll Never Take Her Love From Me
TTITLE15=Go Away With Me
TTITLE16=Blue Side Of Lonesome
TTITLE17=I'll Follow You Up To Our Cloud
TTITLE18=I Can't Get There From Here
TTITLE19=Seasons Of My Heart
EXTD=YEAR: 1987
EXTT0=
EXTT1=
EXTT2=
EXTT3=
EXTT4=
EXTT5=
EXTT6=
EXTT7=
EXTT8=
EXTT9=
EXTT10=
EXTT11=
EXTT12=
EXTT13=
EXTT14=
EXTT15=
EXTT16=
EXTT17=
EXTT18=
EXTT19=
PLAYORDER=
